<svg width="966" height="720" viewBox="0 0 966 720" fill="none" xmlns="http://www.w3.org/2000/svg">
<path d="M965.306 632.082H0V632.565H965.306V632.082Z" fill="#EBEBEB"/>
<path d="M457.555 545.977H84.7732C81.8528 545.972 79.0538 544.808 76.9906 542.741C74.9275 540.675 73.7687 537.874 73.7687 534.953V10.9273C73.7941 8.02367 74.9641 5.24736 77.0245 3.20138C79.085 1.15539 81.8695 0.004974 84.7732 0H457.555C460.479 0 463.283 1.16143 465.35 3.22879C467.417 5.29616 468.579 8.1001 468.579 11.0238V534.953C468.579 537.877 467.417 540.681 465.35 542.748C463.283 544.816 460.479 545.977 457.555 545.977ZM84.7732 0.386124C81.9808 0.391238 79.3046 1.50407 77.3319 3.48037C75.3593 5.45666 74.2513 8.13492 74.2513 10.9273V534.953C74.2513 537.746 75.3593 540.424 77.3319 542.4C79.3046 544.376 81.9808 545.489 84.7732 545.494H457.555C460.349 545.489 463.027 544.377 465.003 542.401C466.979 540.426 468.091 537.747 468.096 534.953V10.9273C468.091 8.13315 466.979 5.45493 465.003 3.47919C463.027 1.50345 460.349 0.391227 457.555 0.386124H84.7732Z" fill="#EBEBEB"/>
<path d="M875.166 545.977H502.364C499.442 545.972 496.641 544.809 494.575 542.743C492.509 540.676 491.346 537.875 491.341 534.953V10.9273C491.371 8.02191 492.545 5.24562 494.609 3.20017C496.672 1.15472 499.459 0.00491976 502.364 0H875.166C878.066 0.0100479 880.846 1.16271 882.902 3.20815C884.958 5.25359 886.125 8.02701 886.151 10.9273V534.953C886.151 537.87 884.995 540.668 882.936 542.735C880.877 544.801 878.083 545.967 875.166 545.977ZM502.364 0.386124C499.57 0.391227 496.892 1.50345 494.916 3.47919C492.941 5.45493 491.828 8.13315 491.823 10.9273V534.953C491.828 537.747 492.941 540.426 494.916 542.401C496.892 544.377 499.57 545.489 502.364 545.494H875.166C877.96 545.489 880.638 544.377 882.614 542.401C884.589 540.426 885.702 537.747 885.707 534.953V10.9273C885.702 8.13315 884.589 5.45493 882.614 3.47919C880.638 1.50345 877.96 0.391227 875.166 0.386124H502.364Z" fill="#EBEBEB"/>
<path d="M868.582 650.462H807.633V650.944H868.582V650.462Z" fill="#EBEBEB"/>
<path d="M647.411 645.23H582.91V645.712H647.411V645.23Z" fill="#EBEBEB"/>
<path d="M886.189 668.397H765.661V668.88H886.189V668.397Z" fill="#EBEBEB"/>
<path d="M138.406 665.154H101.28V665.636H138.406V665.154Z" fill="#EBEBEB"/>
<path d="M214.086 665.154H155.607V665.636H214.086V665.154Z" fill="#EBEBEB"/>
<path d="M471.34 657.007H366.005V657.489H471.34V657.007Z" fill="#EBEBEB"/>
<path d="M723.284 632.082V296.619H639.187V632.082H723.284Z" fill="#F0F0F0"/>
<path d="M718.67 380.388V306.407H643.801V380.388H718.67Z" fill="#F5F5F5"/>
<path d="M697.82 305.442H664.671C664.671 307.49 665.485 309.454 666.933 310.903C668.381 312.351 670.345 313.165 672.393 313.165H690.194C692.225 313.139 694.165 312.314 695.592 310.869C697.019 309.423 697.82 307.474 697.82 305.442Z" fill="#E6E6E6"/>
<path d="M718.67 461.03V387.049H643.801V461.03H718.67Z" fill="#F5F5F5"/>
<path d="M718.67 541.652V467.671H643.801V541.652H718.67Z" fill="#F5F5F5"/>
<path d="M718.67 622.275V548.294H643.801V622.275H718.67Z" fill="#F5F5F5"/>
<path d="M697.82 386.122H664.671C664.671 388.17 665.485 390.135 666.933 391.583C668.381 393.031 670.345 393.845 672.393 393.845H690.194C692.225 393.819 694.165 392.995 695.592 391.549C697.019 390.104 697.82 388.154 697.82 386.122Z" fill="#E6E6E6"/>
<path d="M697.82 466.687H664.671C664.671 468.735 665.485 470.699 666.933 472.147C668.381 473.596 670.345 474.409 672.393 474.409H690.194C692.225 474.384 694.165 473.559 695.592 472.114C697.019 470.668 697.82 468.718 697.82 466.687Z" fill="#E6E6E6"/>
<path d="M697.82 547.309H664.671C664.671 549.357 665.485 551.322 666.933 552.77C668.381 554.218 670.345 555.032 672.393 555.032H690.194C692.225 555.006 694.165 554.181 695.592 552.736C697.019 551.29 697.82 549.341 697.82 547.309Z" fill="#E6E6E6"/>
<path d="M765.294 632.082V296.619H723.284V632.082H765.294Z" fill="#F5F5F5"/>
<path d="M814.969 632.102V296.639H730.872V632.102H814.969Z" fill="#F0F0F0"/>
<path d="M810.355 380.388V306.407H735.486V380.388H810.355Z" fill="#F5F5F5"/>
<path d="M789.504 305.442H756.356C756.356 307.49 757.169 309.454 758.618 310.903C760.066 312.351 762.03 313.165 764.078 313.165H781.898C783.926 313.134 785.86 312.307 787.284 310.862C788.707 309.417 789.505 307.47 789.504 305.442Z" fill="#E6E6E6"/>
<path d="M810.355 461.011V387.03H735.486V461.011H810.355Z" fill="#F5F5F5"/>
<path d="M810.374 541.652V467.671H735.505V541.652H810.374Z" fill="#F5F5F5"/>
<path d="M810.355 622.275V548.294H735.486V622.275H810.355Z" fill="#F5F5F5"/>
<path d="M789.504 386.122H756.356C756.356 388.17 757.169 390.135 758.618 391.583C760.066 393.031 762.03 393.845 764.078 393.845H781.898C783.926 393.814 785.86 392.987 787.284 391.542C788.707 390.097 789.505 388.151 789.504 386.122Z" fill="#E6E6E6"/>
<path d="M789.504 466.687H756.356C756.356 468.735 757.169 470.699 758.618 472.147C760.066 473.596 762.03 474.409 764.078 474.409H781.898C783.926 474.379 785.86 473.552 787.284 472.107C788.707 470.662 789.505 468.715 789.504 466.687Z" fill="#E6E6E6"/>
<path d="M789.504 547.309H756.356C756.356 549.357 757.169 551.322 758.618 552.77C760.066 554.218 762.03 555.032 764.078 555.032H781.898C783.926 555.001 785.86 554.174 787.284 552.729C788.707 551.284 789.505 549.337 789.504 547.309Z" fill="#E6E6E6"/>
<path d="M856.979 632.082V296.619H814.969V632.082H856.979Z" fill="#F5F5F5"/>
<path d="M804.409 229.627H779.851V296.619H804.409V229.627Z" fill="#E0E0E0"/>
<path d="M702.743 296.619H796.416L810.355 188.215H716.682L702.743 296.619Z" fill="#E6E6E6"/>
<path d="M692.047 296.619H794.022L807.98 188.215H705.986L692.047 296.619Z" fill="#F0F0F0"/>
<path d="M786.589 288.086L798.327 196.749H713.438L701.681 288.086H786.589Z" fill="white"/>
<path d="M764.918 258.309C774.912 248.937 776.333 234.214 768.091 225.426C759.85 216.637 745.066 217.11 735.072 226.482C725.078 235.854 723.657 250.577 731.899 259.365C740.14 268.154 754.923 267.681 764.918 258.309Z" fill="#E6E6E6"/>
<path d="M348.282 632.082H610.266L610.266 78.4022H348.282L348.282 632.082Z" fill="#E6E6E6"/>
<path d="M342.452 632.082H604.436L604.436 78.4022H342.452L342.452 632.082Z" fill="#F5F5F5"/>
<path d="M593.991 620.344V90.1403L352.916 90.1403V620.344H593.991Z" fill="white"/>
<path d="M357.318 620.344L357.318 90.1403H352.916L352.916 620.344H357.318Z" fill="#E6E6E6"/>
<path d="M346.796 262.1L600.131 262.1V246.346L346.796 246.346V262.1Z" fill="#F5F5F5"/>
<path d="M260.845 617.081H297.353L297.353 380.331H260.845V617.081Z" fill="#F0F0F0"/>
<path d="M110.277 632.082H290.345V617.081H110.277V632.082Z" fill="#F0F0F0"/>
<path d="M260.845 380.331H103.268V617.081H260.845V380.331Z" fill="#F5F5F5"/>
<path d="M246.481 409.463H117.613V487.113H246.481V409.463Z" fill="#F0F0F0"/>
<path d="M246.481 510.299H117.613V587.949H246.481V510.299Z" fill="#F0F0F0"/>
<path d="M143.753 461.976V434.639C143.753 432.229 141.8 430.275 139.39 430.275H137.46C135.05 430.275 133.096 432.229 133.096 434.639V461.976C133.096 464.386 135.05 466.339 137.46 466.339H139.39C141.8 466.339 143.753 464.386 143.753 461.976Z" fill="#F5F5F5"/>
<path d="M143.734 562.793V535.455C143.734 533.045 141.781 531.092 139.371 531.092H137.44C135.031 531.092 133.077 533.045 133.077 535.455V562.793C133.077 565.202 135.031 567.156 137.44 567.156H139.371C141.781 567.156 143.734 565.202 143.734 562.793Z" fill="#F5F5F5"/>
<path d="M260.111 246.597C256.038 248.643 244.937 246.443 248.624 253.953C250.76 257.877 253.304 261.565 256.212 264.957C260.343 270.054 259.571 275.595 254.686 277.603C253.622 277.98 252.686 278.649 251.983 279.533C249.744 282.757 255.053 287.082 257.659 290.306C260.266 293.53 261.308 296.696 259.397 299.11C257.486 301.523 252.833 300.77 249.319 301.581C240.844 303.511 249.551 315.095 248.663 321.177C248.045 325.269 244.705 326.428 240.187 326.968C236.5 327.432 231.577 327.76 231.365 331.544C231.191 334.826 235.457 338.533 236.577 341.969C237.112 343.45 237.314 345.031 237.171 346.598C237.027 348.166 236.541 349.684 235.747 351.043C234.999 352.186 234.023 353.162 232.88 353.909C231.738 354.657 230.452 355.16 229.106 355.387C224.916 356.275 218.584 355.387 218.275 360.078C218.14 362.183 219.607 364.055 218.584 366.005C218.028 366.817 217.3 367.497 216.453 367.997C215.606 368.497 214.659 368.806 213.68 368.901C209.668 369.512 205.582 369.441 201.594 368.689C196.671 367.782 189.412 363.438 192.077 359.268C192.541 358.663 193.122 358.159 193.785 357.784C194.449 357.409 195.181 357.172 195.938 357.086C197.115 356.835 200.552 357.202 200.996 356.41C201.44 355.619 200.262 352.549 200.204 351.429C200.088 348.353 200.573 345.284 201.633 342.394C202.996 338.62 205.163 335.188 207.985 332.336C209.162 331.158 211.016 330.289 211.248 328.571C211.24 326.636 210.557 324.765 209.317 323.281C207.386 320.617 204.51 318.088 203.525 315.25C201.865 310.809 205.88 309.458 209.587 308.377C212.966 307.469 217.31 306.292 216.248 302.199C215.418 299.245 211.711 296.832 210.591 293.955C209.085 290.094 212.734 289.959 215.34 288.569C218.738 286.773 219.588 283.588 218.372 279.533C216.441 272.873 204.104 263.451 210.359 259.107C211.962 258.007 213.429 257.64 214.394 255.98C215.36 254.319 215.553 252.003 216.885 250.4C218.989 247.852 223.352 247.427 225.631 245.053C230.303 240.207 220.206 231.538 229.492 229.608C231.455 229.368 233.316 228.601 234.878 227.387C235.728 226.596 236.403 222.793 237.349 222.522C241.577 221.345 249.203 229.55 251.597 232.079C254.223 235.071 265.015 244.145 260.111 246.597Z" fill="#E0E0E0"/>
<path d="M187.617 359.712C190.127 355.059 201.131 350.425 193.814 345.039C189.888 342.369 185.663 340.166 181.227 338.475C174.856 335.811 172.597 329.671 175.821 324.594C176.576 323.526 177.048 322.284 177.192 320.984C177.462 316.292 170.454 315.192 166.438 313.493C162.422 311.794 159.777 309.207 160.202 305.539C160.646 301.504 165.087 299.747 167.751 296.754C174.199 289.515 160.26 282.97 157.847 276.271C156.206 271.695 158.523 268.548 162.21 265.054C165.202 262.274 169.373 258.876 167.519 254.879C165.936 251.404 160.183 250.265 157.364 247.427C156.055 246.155 155.015 244.634 154.305 242.952C153.596 241.271 153.231 239.464 153.233 237.639C153.279 234.437 154.542 231.372 156.766 229.067C159.99 225.553 166.071 222.561 163.812 217.483C162.789 215.244 160.492 214.24 160.357 211.692C160.4 210.552 160.67 209.433 161.151 208.398C161.631 207.364 162.313 206.436 163.156 205.668C166.277 202.611 169.927 200.145 173.929 198.39C178.755 196.266 187.443 196.189 187.443 202.116C187.293 203.87 186.511 205.51 185.242 206.73C184.335 207.715 181.111 209.452 181.149 210.591C181.188 211.73 183.871 214.086 184.509 215.205C186.29 218.346 187.5 221.778 188.08 225.341C188.908 230.061 188.836 234.895 187.868 239.589C187.462 241.52 186.285 243.566 186.999 245.477C188.004 247.366 189.645 248.837 191.633 249.628C194.702 251.173 198.641 251.945 201.093 254.204C204.954 257.737 202.154 261.675 199.413 265.015C196.922 268.046 193.621 272.004 196.845 275.479C199.162 277.989 203.718 278.143 206.247 280.402C209.626 283.433 206.498 285.846 204.934 288.877C203.004 292.739 203.853 296.6 207.097 299.998C212.464 305.577 228.333 307.72 225.09 315.945C224.279 318.068 223.159 319.362 223.159 321.64C223.159 323.918 224.26 326.447 223.951 328.918C223.449 332.78 219.839 335.984 219.086 339.826C217.561 347.684 231.075 350.232 224.048 358.051C222.406 359.6 221.184 361.54 220.495 363.689C220.167 365.001 221.596 369.326 220.901 370.195C217.812 374.056 206.691 370.369 203.236 369.249C198.988 367.839 184.624 365.252 187.617 359.712Z" fill="#F5F5F5"/>
<path d="M159.507 349.228C159.507 349.228 160.839 380.331 211.75 380.331C262.66 380.331 264.011 349.228 264.011 349.228H159.507Z" fill="#F0F0F0"/>
<path d="M482.653 719.269C689.388 719.269 856.979 709.484 856.979 697.414C856.979 685.344 689.388 675.56 482.653 675.56C275.918 675.56 108.327 685.344 108.327 697.414C108.327 709.484 275.918 719.269 482.653 719.269Z" fill="#F5F5F5"/>
<path d="M605.324 681.525L589.84 681.294L586.269 645.346L601.772 645.577L605.324 681.525Z" fill="#FFB573"/>
<path d="M685.039 681.583H669.555L657.489 645.693H672.973L685.039 681.583Z" fill="#FFB573"/>
<path d="M667.49 679.788H686.371C686.68 679.788 686.98 679.894 687.222 680.087C687.464 680.279 687.634 680.548 687.703 680.85L690.754 694.634C690.831 694.969 690.83 695.316 690.751 695.651C690.673 695.985 690.518 696.296 690.3 696.561C690.081 696.826 689.805 697.038 689.492 697.179C689.179 697.32 688.838 697.387 688.495 697.376C682.413 697.279 677.973 696.912 670.328 696.912C665.617 696.912 651.408 697.414 644.902 697.414C638.395 697.414 637.546 690.985 640.21 690.387C652.141 687.78 661.138 684.19 664.961 680.734C665.662 680.124 666.56 679.788 667.49 679.788Z" fill="#263238"/>
<path d="M589.976 679.575L606.888 679.846C607.195 679.847 607.492 679.953 607.73 680.146C607.969 680.339 608.135 680.608 608.201 680.907L611.039 694.731C611.112 695.064 611.109 695.41 611.029 695.741C610.948 696.073 610.793 696.382 610.575 696.645C610.357 696.907 610.082 697.117 609.771 697.257C609.46 697.397 609.121 697.464 608.78 697.453C602.66 697.26 593.856 696.758 586.172 696.642C577.214 696.507 569.453 696.874 558.931 696.642C552.58 696.545 550.919 690.097 553.584 689.557C565.746 687.085 575.65 686.95 586.23 680.656C587.356 679.96 588.652 679.586 589.976 679.575Z" fill="#263238"/>
<path d="M599.493 219.762C594.592 230.641 589.134 241.26 583.141 251.578C580.149 256.733 577.021 261.849 573.623 266.868C570.242 272.014 566.581 276.97 562.657 281.715L561.132 283.53L560.36 284.437C560.09 284.746 559.916 284.978 559.375 285.537C557.162 288.028 554.322 289.882 551.151 290.905C549.187 291.52 547.119 291.737 545.07 291.542C543.262 291.387 541.494 290.93 539.838 290.19C537.451 289.106 535.275 287.61 533.409 285.769C530.764 283.129 528.49 280.142 526.652 276.888C525.039 274.098 523.576 271.224 522.269 268.278C517.5 257.129 513.928 245.506 511.612 233.604L522.732 230.148C525.107 235.206 527.559 240.438 530.127 245.419C532.694 250.4 535.32 255.381 538.158 259.957C539.489 262.189 540.939 264.348 542.502 266.424C543.727 268.11 545.154 269.64 546.749 270.981C547.328 271.425 547.772 271.521 547.541 271.328C547.217 271.154 546.863 271.043 546.498 271C545.897 270.931 545.287 270.976 544.703 271.135C543.544 271.502 543.371 271.772 543.506 271.521L545.649 268.567C551.919 259.468 557.631 249.997 562.754 240.207C568.063 230.341 573.237 220.032 578.083 210.051L599.493 219.762Z" fill="#FFB573"/>
<path d="M605.942 210.051C610.112 224.26 580.709 263.007 580.709 263.007L551.035 243.933C556.627 231.648 563.52 219.997 571.596 209.182C583.74 193.602 601.347 194.451 605.942 210.051Z" fill="#520000"/>
<path opacity="0.2" d="M605.942 210.051C610.112 224.26 580.709 263.007 580.709 263.007L551.035 243.933C556.627 231.648 563.52 219.997 571.596 209.182C583.74 193.602 601.347 194.451 605.942 210.051Z" fill="black"/>
<path opacity="0.2" d="M587.852 226.731C581.751 229.337 572.774 244.107 568.102 254.918L580.689 263.007C587.722 253.605 594.046 243.693 599.609 233.353C595.632 228.99 591.076 225.36 587.852 226.731Z" fill="black"/>
<path d="M522.462 235.708L526.323 218.236L508.697 218.101C508.697 218.101 503.986 231.229 513.465 237.407L522.462 235.708Z" fill="#FFB573"/>
<path d="M524.258 201.865L510.126 206.942L508.639 218.101L526.265 218.236L524.258 201.865Z" fill="#FFB573"/>
<path opacity="0.2" d="M586.288 645.346L588.122 663.879L603.606 664.13L601.791 645.597L586.288 645.346Z" fill="black"/>
<path opacity="0.2" d="M672.973 645.712H657.489L663.706 664.208H679.209L672.973 645.712Z" fill="black"/>
<path d="M675.019 203.757C658.319 262.621 661.698 325.096 660.192 337.741C648.068 336.872 602.409 333.455 577.523 331.602C566.673 243.392 588.373 198.081 588.373 198.081C588.373 198.081 593.702 197.058 600.922 196.305C603.181 196.073 605.633 195.88 608.181 195.745C609.591 195.745 611.019 195.61 612.467 195.59C624.22 195.791 635.951 196.661 647.604 198.197C649.805 198.467 652.045 198.814 654.226 199.162C656.408 199.509 658.203 199.876 660.018 200.243C668.513 201.923 675.019 203.757 675.019 203.757Z" fill="#520000"/>
<path opacity="0.2" d="M675.019 203.757C658.319 262.621 661.698 325.096 660.192 337.741C648.068 336.872 602.409 333.455 577.523 331.602C566.673 243.392 588.373 198.081 588.373 198.081C588.373 198.081 593.702 197.058 600.922 196.305C603.181 196.073 605.633 195.88 608.181 195.745C609.591 195.745 611.019 195.61 612.467 195.59C624.22 195.791 635.951 196.661 647.604 198.197C649.805 198.467 652.045 198.814 654.226 199.162C656.408 199.509 658.203 199.876 660.018 200.243C668.513 201.923 675.019 203.757 675.019 203.757Z" fill="black"/>
<path opacity="0.2" d="M657.373 229.009C655.887 234.704 657.586 260.691 663.532 267.1C664.343 258.779 665.463 250.091 666.853 241.211L657.373 229.009Z" fill="black"/>
<path d="M647.064 158.31C644.013 169.45 640.249 190.011 647.604 198.139C641.002 203.795 632.449 210.244 618.993 209.722C605.536 209.201 608.548 200.069 612.467 195.532C625.287 193.447 625.673 184.065 624.051 175.126L647.064 158.31Z" fill="#FFB573"/>
<path d="M646.369 194.992C646.369 194.992 640.809 204.162 618.452 209.742C622.159 213.178 623.954 221.325 623.954 221.325C623.954 221.325 653.126 214.298 652.238 197.888C650.457 196.601 648.474 195.622 646.369 194.992Z" fill="#263238"/>
<path d="M610.498 219.221C610.498 219.221 613.433 212.155 618.452 209.742C616.116 207.328 612.66 200.089 614.707 194.664C612.975 194.525 611.233 194.636 609.533 194.992C609.533 194.992 600.691 206.131 610.498 219.221Z" fill="#263238"/>
<path d="M617.487 219.433C617.236 220.939 616.348 222.059 615.556 221.905C614.765 221.75 614.282 220.418 614.552 218.912C614.823 217.406 615.711 216.267 616.483 216.422C617.255 216.576 617.796 217.908 617.487 219.433Z" fill="#263238"/>
<path d="M616.174 228.121C616.039 229.666 615.267 230.843 614.436 230.766C613.606 230.689 613.046 229.395 613.181 227.87C613.317 226.345 614.089 225.148 614.919 225.225C615.749 225.302 616.309 226.596 616.174 228.121Z" fill="#263238"/>
<path opacity="0.2" d="M637.72 165.241L624.205 175.184C624.61 177.264 624.817 179.378 624.823 181.497C629.708 181.149 636.716 176.361 637.604 171.361C637.997 169.343 638.036 167.272 637.72 165.241Z" fill="black"/>
<path d="M616.058 116.242C604.011 115.972 601.579 145.085 609.398 150.163C617.217 155.24 638.608 116.725 616.058 116.242Z" fill="#263238"/>
<path d="M649.67 141.456C647.604 156.688 647.16 165.724 638.839 173.002C626.329 183.949 607.95 175.531 605.44 159.99C603.181 145.993 606.946 123.424 622.391 118.443C625.789 117.327 629.417 117.099 632.928 117.78C636.44 118.462 639.718 120.03 642.452 122.337C645.186 124.643 647.285 127.611 648.548 130.957C649.812 134.304 650.198 137.918 649.67 141.456Z" fill="#FFB573"/>
<path d="M647.489 156.38C639.766 160.453 630.847 118.289 651.35 120.489C677.104 123.231 662.991 148.252 647.489 156.38Z" fill="#263238"/>
<path d="M613.104 120.393C613.104 129.834 643.743 139.216 654.246 135.992C664.748 132.768 667.393 124.409 661.756 118.617C652.219 108.636 613.104 101.898 613.104 120.393Z" fill="#263238"/>
<path d="M614.34 121.629C615.048 124.752 616.574 127.63 618.761 129.969C616.02 129.814 613.297 125.934 612.429 123.675C611.56 121.416 614.34 121.629 614.34 121.629Z" fill="#263238"/>
<path d="M655.327 158.851C654.193 160.397 652.766 161.705 651.126 162.699C649.486 163.693 647.666 164.353 645.77 164.643C640.693 165.376 638.82 160.666 640.789 156.225C642.566 152.229 647.334 147.035 652.161 148.348C656.987 149.661 658.107 155.009 655.327 158.851Z" fill="#FFB573"/>
<path d="M582.369 660.269L608.606 660.675C608.606 660.675 599.841 557.02 602.216 508.793C602.93 494.121 605.884 473.598 609.745 451.609C614.649 423.885 617.004 412.842 623.259 377.821C627.777 352.839 631.793 335.714 631.793 335.714L577.446 331.66C577.446 331.66 554.472 456.532 555.012 503.89C555.553 552.985 582.369 660.269 582.369 660.269Z" fill="#263238"/>
<path opacity="0.2" d="M612.738 368.747C602.969 393.073 602.776 450.064 607.274 466.108C608.046 461.358 608.876 456.455 609.745 451.551C614.649 423.827 617.004 412.784 623.259 377.763C623.375 377.068 623.51 376.392 623.626 375.716C620.426 372.783 616.742 370.425 612.738 368.747Z" fill="black"/>
<path d="M606.849 333.783C606.849 333.783 611.637 464.467 615.286 509.72C619.263 559.298 656.408 660.617 656.408 660.617H684.788C684.788 660.617 665.849 567.947 660.038 519.682C653.416 464.853 660.153 337.703 660.153 337.703L606.849 333.783Z" fill="#263238"/>
<path d="M653.029 661.235H686.448V651.253L649.091 650.597L653.029 661.235Z" fill="#520000"/>
<path d="M579.068 660.771L610.324 661.254L610.479 651.157L575.535 650.076L579.068 660.771Z" fill="#520000"/>
<path d="M626.136 144.004C626.039 145.259 625.306 146.225 624.495 146.147C623.684 146.07 623.086 145.028 623.182 143.792C623.279 142.556 624.012 141.591 624.823 141.649C625.634 141.707 626.232 142.865 626.136 144.004Z" fill="#263238"/>
<path d="M612.004 142.962C612.004 144.217 611.174 145.163 610.363 145.105C609.552 145.047 608.973 143.985 609.05 142.749C609.127 141.514 609.88 140.529 610.71 140.587C611.541 140.645 612.139 141.707 612.004 142.962Z" fill="#263238"/>
<path d="M616.483 143.908C614.708 147.611 612.435 151.054 609.726 154.14C610.523 154.799 611.453 155.279 612.453 155.545C613.453 155.812 614.498 155.859 615.518 155.685L616.483 143.908Z" fill="#ED893E"/>
<path d="M620.614 159.411C622.016 159.355 623.391 159.011 624.653 158.4C625.915 157.788 627.038 156.923 627.951 155.858C627.985 155.824 628.013 155.784 628.031 155.739C628.05 155.694 628.06 155.646 628.06 155.598C628.06 155.549 628.05 155.501 628.031 155.456C628.013 155.412 627.985 155.371 627.951 155.337C627.88 155.272 627.787 155.236 627.69 155.236C627.594 155.236 627.501 155.272 627.43 155.337C626.394 156.499 625.099 157.4 623.65 157.967C622.201 158.534 620.638 158.751 619.089 158.6C618.995 158.594 618.902 158.625 618.83 158.686C618.759 158.748 618.713 158.834 618.703 158.928C618.698 158.976 618.702 159.025 618.716 159.072C618.729 159.118 618.752 159.161 618.783 159.199C618.813 159.237 618.851 159.268 618.894 159.291C618.936 159.314 618.983 159.329 619.031 159.333C619.557 159.395 620.086 159.421 620.614 159.411Z" fill="#263238"/>
<path d="M630.827 139.776C630.952 139.774 631.073 139.733 631.175 139.66C631.256 139.61 631.326 139.543 631.381 139.464C631.435 139.386 631.474 139.297 631.494 139.203C631.514 139.11 631.514 139.013 631.496 138.919C631.478 138.825 631.441 138.736 631.387 138.657C630.775 137.652 629.928 136.812 628.919 136.206C627.91 135.601 626.77 135.25 625.595 135.181C625.401 135.181 625.214 135.259 625.077 135.396C624.939 135.534 624.862 135.72 624.862 135.915C624.862 136.11 624.939 136.296 625.077 136.434C625.214 136.571 625.401 136.649 625.595 136.649C626.514 136.724 627.401 137.017 628.183 137.504C628.966 137.991 629.621 138.657 630.094 139.448C630.171 139.568 630.281 139.663 630.412 139.722C630.542 139.78 630.686 139.799 630.827 139.776Z" fill="#263238"/>
<path d="M606.328 137.672C606.45 137.662 606.567 137.624 606.671 137.56C606.775 137.497 606.863 137.409 606.926 137.305C607.363 136.49 607.989 135.791 608.752 135.267C609.514 134.743 610.391 134.409 611.309 134.293C611.405 134.289 611.498 134.265 611.584 134.223C611.67 134.181 611.747 134.122 611.81 134.05C611.873 133.978 611.921 133.894 611.951 133.803C611.981 133.713 611.992 133.617 611.985 133.521C611.982 133.426 611.961 133.332 611.921 133.245C611.882 133.158 611.825 133.079 611.755 133.014C611.685 132.95 611.602 132.9 611.512 132.867C611.423 132.835 611.327 132.821 611.232 132.826C610.073 132.962 608.964 133.37 607.994 134.018C607.024 134.666 606.221 135.534 605.652 136.552C605.604 136.636 605.572 136.728 605.56 136.824C605.547 136.92 605.554 137.017 605.579 137.11C605.604 137.204 605.647 137.291 605.706 137.367C605.765 137.444 605.839 137.508 605.922 137.556C606.045 137.63 606.185 137.67 606.328 137.672Z" fill="#263238"/>
<path d="M662.354 682.51C663.722 682.472 665.082 682.285 666.409 681.95C666.482 681.932 666.548 681.894 666.6 681.839C666.651 681.784 666.685 681.715 666.698 681.641C666.704 681.57 666.691 681.499 666.661 681.434C666.63 681.37 666.583 681.315 666.524 681.274C665.965 680.927 660.964 677.857 659.246 678.726C659.056 678.826 658.897 678.976 658.784 679.16C658.672 679.343 658.612 679.553 658.609 679.768C658.574 680.129 658.625 680.492 658.76 680.828C658.894 681.164 659.107 681.463 659.381 681.699C660.253 682.295 661.3 682.581 662.354 682.51ZM665.347 681.429C662.721 681.95 660.694 681.853 659.845 681.139C659.658 680.98 659.514 680.776 659.426 680.547C659.338 680.317 659.31 680.07 659.343 679.826C659.337 679.738 659.355 679.65 659.396 679.572C659.437 679.494 659.499 679.428 659.574 679.382C660.462 678.919 663.32 680.251 665.347 681.506V681.429Z" fill="#520000"/>
<path d="M666.331 681.95C666.395 681.967 666.461 681.967 666.524 681.95C666.579 681.914 666.623 681.866 666.653 681.808C666.684 681.751 666.699 681.687 666.698 681.622C666.698 681.429 666.312 676.95 664.517 675.482C664.305 675.296 664.056 675.158 663.786 675.078C663.516 674.997 663.231 674.978 662.953 675.019C662.677 675.014 662.408 675.106 662.192 675.278C661.977 675.451 661.829 675.694 661.775 675.965C661.447 677.703 664.555 681.101 666.158 681.969L666.331 681.95ZM663.204 675.714C663.512 675.712 663.81 675.83 664.034 676.042C665.125 677.433 665.765 679.124 665.868 680.888C664.285 679.672 662.296 677.027 662.489 676.1C662.489 676.004 662.489 675.772 663.03 675.714H663.204Z" fill="#520000"/>
<path d="M588.412 681.622C588.478 681.598 588.536 681.557 588.58 681.502C588.624 681.448 588.653 681.382 588.663 681.313C588.671 681.239 588.657 681.165 588.623 681.1C588.589 681.034 588.535 680.981 588.47 680.946C587.775 680.56 581.597 677.317 579.705 678.32C579.527 678.419 579.376 678.56 579.268 678.733C579.16 678.905 579.098 679.102 579.087 679.305C579.042 679.635 579.078 679.971 579.193 680.284C579.307 680.597 579.496 680.877 579.743 681.101C581.404 682.626 585.863 682.085 588.373 681.622H588.412ZM580.187 678.919C581.346 678.533 584.705 679.865 587.157 681.081C583.72 681.602 581.172 681.409 580.226 680.56C580.065 680.409 579.943 680.221 579.869 680.013C579.795 679.805 579.772 679.582 579.801 679.363C579.802 679.281 579.825 679.201 579.87 679.133C579.914 679.064 579.978 679.01 580.052 678.977L580.187 678.919Z" fill="#520000"/>
<path d="M588.412 681.622H588.508C588.563 681.588 588.608 681.539 588.635 681.481C588.663 681.423 588.672 681.357 588.663 681.294C588.663 681.12 588.296 676.93 586.346 675.289C586.085 675.056 585.779 674.877 585.448 674.765C585.116 674.652 584.765 674.607 584.415 674.633C583.392 674.633 583.103 675.212 583.025 675.637C582.716 677.374 586.365 680.792 588.219 681.66C588.285 681.662 588.351 681.649 588.412 681.622ZM584.01 675.367H584.396C584.665 675.342 584.937 675.373 585.193 675.46C585.449 675.546 585.684 675.685 585.883 675.869C587.006 677.234 587.68 678.913 587.813 680.676C585.883 679.498 583.45 676.815 583.624 675.772C583.682 675.714 583.701 675.463 584.01 675.367Z" fill="#520000"/>
<path d="M678.996 213.41C684.402 224.26 689.248 235.11 693.707 246.23C695.966 251.79 698.051 257.447 700.098 263.142C701.102 266.019 702.028 268.934 702.994 271.792L703.689 273.973L704.442 276.483C704.982 278.201 705.291 279.919 705.697 281.618C707.826 294.619 707.221 307.921 703.92 320.675C702.489 326.729 700.677 332.687 698.495 338.513C697.395 341.409 696.217 344.305 694.962 347.066C693.707 349.827 692.433 352.607 690.869 355.503L680.193 350.869C681.68 345.599 683.186 339.904 684.247 334.363C685.309 328.822 686.294 323.223 686.912 317.701C687.521 312.28 687.741 306.822 687.568 301.369C687.464 296.263 686.751 291.188 685.444 286.252C685.078 285.113 684.788 283.916 684.344 282.835C684.112 282.275 683.977 281.811 683.688 281.136L682.877 279.205C681.796 276.56 680.618 273.915 679.498 271.27C677.239 265.942 674.787 260.671 672.432 255.362L657.856 223.642L678.996 213.41Z" fill="#FFB573"/>
<path d="M675.019 203.757C689.151 208.197 703.052 256.134 703.052 256.134L670.347 270.44C670.347 270.44 659.767 247.273 653.666 229.125C647.044 209.336 657.875 198.39 675.019 203.757Z" fill="#520000"/>
<path opacity="0.2" d="M675.019 203.757C689.151 208.197 703.052 256.134 703.052 256.134L670.347 270.44C670.347 270.44 659.767 247.273 653.666 229.125C647.044 209.336 657.875 198.39 675.019 203.757Z" fill="black"/>
<path d="M681.062 348.263L673.436 362.028L691.41 366.7C691.41 366.7 696.835 353.36 690.425 349.113L681.062 348.263Z" fill="#FFB573"/>
<path d="M672.104 377.647L688.611 379.018L691.41 366.7L673.436 362.028L672.104 377.647Z" fill="#FFB573"/>
<path opacity="0.19" d="M572.909 452.284H164.43L193.235 43.8249H601.714L572.909 452.284Z" fill="#520000"/>
<path opacity="0.2" d="M256.462 452.284H197.714L344.074 43.8249H402.822L256.462 452.284Z" fill="white"/>
<path opacity="0.2" d="M399.154 452.284H269.571L415.931 43.8249H545.514L399.154 452.284Z" fill="white"/>
<path d="M194.316 113.578L182.346 112.728L187.636 37.8207H262.563V49.8291H198.814L194.316 113.578Z" fill="#520000"/>
<path d="M233.758 458.289H157.982L163.33 382.551L175.3 383.4L170.859 446.28H233.758V458.289Z" fill="#520000"/>
<path d="M602.795 113.578L590.844 112.728L595.266 49.8291H532.366V37.8207H608.143L602.795 113.578Z" fill="#520000"/>
<path d="M578.489 458.289H503.561V446.28H567.31L571.809 382.551L583.778 383.4L578.489 458.289Z" fill="#520000"/>
<g opacity="0.3">
<path d="M375.021 392.049C374.666 392.042 374.317 391.956 373.998 391.798C373.882 391.798 371.044 390.177 366.276 387.242C364.345 386.026 361.912 384.539 359.267 382.86C350.869 377.396 342.78 371.643 335.193 365.754C333.262 364.326 331.525 362.858 329.652 361.353C322.663 355.561 316.138 349.885 310.462 344.247C308.994 342.78 307.546 341.313 306.098 339.807C300.827 334.379 295.876 328.648 291.271 322.644C290.152 321.196 289.07 319.709 288.009 318.203C284.082 312.731 280.578 306.967 277.525 300.963C276.792 299.515 276.058 297.99 275.382 296.465C272.847 290.881 270.869 285.061 269.475 279.089C269.127 277.719 268.818 276.232 268.548 274.572C268.336 273.49 268.162 272.351 268.027 271.232C267.428 266.811 266.926 262.312 266.444 257.447C266.289 255.999 266.154 254.532 266.019 253.084C265.517 247.292 265.092 241.635 264.783 235.998V235.535C264.783 234.26 264.629 232.986 264.571 231.673C264.301 226.113 264.108 220.379 263.992 214.626V210.244C263.992 204.162 263.992 198.428 263.992 193.196C263.992 191.729 263.992 190.262 264.088 188.814C264.223 182.52 264.436 176.786 264.687 171.767V171.438C264.687 170.048 264.803 168.697 264.88 167.365C265.227 161.148 265.633 155.26 266.058 150.317C266.193 148.638 266.309 147.209 266.444 145.935C266.888 141.07 267.216 138.348 267.216 138.348C267.256 137.849 267.472 137.381 267.826 137.027C268.179 136.673 268.648 136.457 269.147 136.417C269.494 136.417 305.114 133.656 343.05 126.976C350.773 125.625 358.225 124.158 365.291 122.632C375.697 120.354 385.215 117.883 393.613 115.277C394.034 115.142 394.486 115.142 394.907 115.277C402.919 117.902 412.089 120.374 422.167 122.632C429.021 124.177 436.28 125.625 443.79 126.976C480.78 133.656 516.014 136.398 516.361 136.417C516.899 136.461 517.399 136.71 517.758 137.113C518.118 137.515 518.309 138.04 518.292 138.579C518.292 138.579 518.292 141.282 518.002 146.167C518.002 147.46 517.867 148.927 517.771 150.549C517.481 155.511 517.056 161.399 516.535 167.596C516.419 168.832 516.303 170.068 516.188 171.361V171.998C515.744 177.037 515.126 182.771 514.392 189.026C514.218 190.513 514.045 191.961 513.852 193.428C513.195 198.679 512.404 204.413 511.477 210.456L510.821 214.819C509.894 220.611 508.89 226.403 507.847 231.886C507.616 233.121 507.365 234.376 507.114 235.631L506.979 236.288C505.878 241.886 504.662 247.64 503.349 253.335L502.307 257.737C501.129 262.602 499.99 267.1 498.793 271.502C498.465 272.641 498.136 273.761 497.789 274.881C497.268 276.522 496.766 277.989 496.225 279.379C493.961 285.405 491.17 291.219 487.885 296.754C487.016 298.241 486.089 299.747 485.124 301.214C481.216 307.226 476.914 312.972 472.247 318.416C470.973 319.902 469.699 321.389 468.386 322.837C462.951 328.838 457.216 334.56 451.203 339.981C449.543 341.474 447.883 342.941 446.222 344.383C439.677 350.02 432.438 355.754 424.657 361.468C422.572 362.974 420.526 364.442 418.499 365.87C410.081 371.759 401.123 377.454 392.049 382.956C389.153 384.636 386.586 386.122 384.327 387.339C379.153 390.254 376.102 391.818 375.987 391.876C375.683 392.007 375.352 392.067 375.021 392.049ZM271.212 140.549C271.077 141.823 270.884 143.753 270.652 146.34C270.517 147.615 270.401 149.024 270.286 150.568C269.861 155.588 269.455 161.438 269.108 167.635C269.108 168.948 268.973 170.28 268.896 171.67V171.998C268.625 176.979 268.432 182.675 268.297 188.93C268.297 190.358 268.297 191.806 268.201 193.274C268.201 198.486 268.201 204.182 268.201 210.205V214.588C268.316 220.283 268.509 225.978 268.78 231.48C268.78 232.755 268.896 234.009 268.973 235.342V235.921C269.282 241.5 269.687 247.196 270.189 252.833C270.324 254.281 270.459 255.729 270.614 257.177C271.077 261.984 271.598 266.463 272.178 270.826C272.313 271.888 272.467 272.95 272.66 273.992C272.931 275.576 273.22 276.946 273.548 278.259C274.887 283.965 276.782 289.526 279.205 294.862C279.861 296.31 280.537 297.758 281.251 299.148C284.211 304.969 287.606 310.558 291.407 315.867C292.449 317.315 293.492 318.763 294.592 320.173C299.103 326.048 303.944 331.662 309.091 336.988C310.52 338.456 311.948 339.904 313.396 341.332C319.034 346.873 325.385 352.53 332.278 358.167C334.208 359.654 335.946 361.102 337.76 362.53C345.232 368.322 353.205 374.017 361.507 379.404C364.113 381.064 366.449 382.531 368.438 383.728C371.508 385.659 373.786 386.933 375.002 387.59C376.296 386.914 378.863 385.659 382.184 383.728C384.365 382.512 386.895 381.045 389.752 379.365C398.787 373.979 407.591 368.303 415.912 362.472C417.842 361.063 419.947 359.615 422.012 358.109C429.735 352.472 436.859 346.815 443.249 341.255C444.89 339.826 446.531 338.378 448.153 336.892C454.07 331.569 459.715 325.95 465.065 320.057C466.359 318.628 467.613 317.2 468.926 315.752C473.479 310.452 477.671 304.854 481.475 298.994C482.421 297.565 483.406 296.117 484.139 294.689C487.346 289.379 490.079 283.797 492.306 278.008C492.827 276.676 493.31 275.286 493.793 273.722C494.14 272.66 494.449 271.579 494.739 270.517C495.936 266.154 497.075 261.694 498.233 256.868C498.6 255.42 498.928 253.972 499.275 252.524C500.569 246.867 501.785 241.172 502.866 235.612L503.002 234.936C503.253 233.701 503.484 232.465 503.716 231.229C504.758 225.746 505.762 220.051 506.67 214.298L507.345 209.954C508.253 203.95 509.044 198.255 509.701 193.023C509.894 191.575 510.048 190.146 510.222 188.717C510.956 182.462 511.573 176.767 512.017 171.747V171.11C512.133 169.836 512.249 168.581 512.346 167.365C512.867 161.225 513.292 155.376 513.562 150.453C513.659 148.831 513.736 147.383 513.813 146.089C513.91 143.734 513.987 141.881 514.025 140.626C505.994 139.931 475.181 137.093 443.056 131.301C435.488 129.93 428.171 128.463 421.259 126.918C411.317 124.679 402.243 122.246 394.231 119.659C385.871 122.246 376.45 124.679 366.179 126.918C359.074 128.463 351.545 129.93 343.784 131.301C310.442 137.073 278.877 139.911 271.212 140.549Z" fill="#520000"/>
<path d="M404.843 225.548C415.268 215.484 416.114 199.447 406.731 189.727C397.348 180.008 381.291 180.287 370.866 190.351C360.44 200.415 359.595 216.453 368.978 226.172C378.361 235.892 394.418 235.612 404.843 225.548Z" fill="#520000"/>
<path d="M393.42 216.788H387.223H381.045L363.553 298.376H399.405L393.42 216.788Z" fill="#520000"/>
<g opacity="0.2">
<path d="M443.404 129.119H343.417C350.831 127.807 358.341 126.359 365.735 124.737H421.723C428.885 126.359 436.183 127.807 443.404 129.119Z" fill="#520000"/>
<path d="M515.666 150.472H268.162C268.278 148.85 268.394 147.402 268.529 146.089H515.898C515.84 147.402 515.763 148.85 515.666 150.472Z" fill="#520000"/>
<path d="M514.431 167.442C514.315 168.871 514.18 170.338 514.045 171.844H266.772C266.772 170.338 266.907 168.871 266.984 167.442H514.431Z" fill="#520000"/>
<path d="M512.249 188.814C512.075 190.262 511.902 191.729 511.709 193.196H266.077C266.077 191.729 266.077 190.262 266.173 188.814H512.249Z" fill="#520000"/>
<path d="M509.353 210.186C509.122 211.634 508.909 213.082 508.678 214.549H266.096C266.096 213.082 266.096 211.634 266.096 210.186H509.353Z" fill="#520000"/>
<path d="M505.82 231.538L504.951 235.921H266.907C266.907 234.454 266.733 232.986 266.675 231.538H505.82Z" fill="#520000"/>
<path d="M501.245 252.91L500.202 257.273H268.529C268.374 255.825 268.239 254.358 268.104 252.91H501.245Z" fill="#520000"/>
<path d="M495.723 274.263C495.26 275.73 494.758 277.197 494.198 278.645H271.541C271.174 277.197 270.884 275.73 270.633 274.263H495.723Z" fill="#520000"/>
<path d="M486.012 295.615C485.163 297.083 484.236 298.569 483.309 299.998H279.417C278.684 298.569 277.989 297.083 277.332 295.615H486.012Z" fill="#520000"/>
<path d="M470.587 316.987C469.332 318.454 468.077 319.922 466.725 321.35H292.97C291.851 319.922 290.789 318.454 289.746 316.987H470.587Z" fill="#520000"/>
<path d="M449.697 338.34C448.056 339.826 446.415 341.294 444.755 342.722H311.948C310.5 341.294 309.052 339.826 307.624 338.34H449.697Z" fill="#520000"/>
<path d="M423.325 359.692C421.24 361.198 419.213 362.665 417.186 364.075H336.506C334.691 362.665 332.857 361.198 330.984 359.692H423.325Z" fill="#520000"/>
<path d="M390.891 381.064C388.014 382.744 385.466 384.211 383.284 385.427H367.395C365.465 384.211 363.032 382.744 360.407 381.064H390.891Z" fill="#520000"/>
</g>
</g>
</svg>
